# xmcd
#
# Track frame offsets:
#  150
#  15156
#  30885
#  44661
#  62802
#  79025
#  94956
#  108018
#  121747
#  136722
#  152945
#  165823
#  181877
#  198378
#  217635
#  232741
#  249046
#  262248
#  276788
#  291093
#  308101
#  324992
#
# Disc length: 4588 seconds
#
# Revision: 0
# Processed by: cddbd v1.5.2PL0 Copyright (c) Steve Scherf et al.
# Submitted via: Collectorz.com_Music_Collector 6.11
#
DISCID=0e11ea16
DTITLE=Alabama - For The Record  Disc 2
DYEAR=1900
DGENRE=Country
TTITLE0=Born Country
TTITLE1=Down Home
TTITLE2=Face To Face
TTITLE3=Fallin' Again
TTITLE4=Forever's As Far As I'll Go
TTITLE5=Give Me One More Shot
TTITLE6=Here We Are
TTITLE7=High Cotton
TTITLE8=Hometown Honeymoon
TTITLE9=If I Had You
TTITLE10=I'm In A Hurry (And Don't Kn..
TTITLE11=In Pictures
TTITLE12=Jukebox In My Mind
TTITLE13=Once Upon A Lifetime
TTITLE14=Reckless
TTITLE15=Sad Lookin' Moon
TTITLE16=She Ain't Your Ordinary Girl
TTITLE17=Song Of The South
TTITLE18=Southern Star
TTITLE19=Then Again
TTITLE20=Touch Me When We're Dancing
TTITLE21=You've Got The Touch
EXTD=
EXTT0=
EXTT1=
EXTT2=
EXTT3=
EXTT4=
EXTT5=
EXTT6=
EXTT7=
EXTT8=
EXTT9=
EXTT10=
EXTT11=
EXTT12=
EXTT13=
EXTT14=
EXTT15=
EXTT16=
EXTT17=
EXTT18=
EXTT19=
EXTT20=
EXTT21=
PLAYORDER=
